<mxfile host="app.diagrams.net" agent="Mozilla/5.0 (Windows NT 10.0; Win64; x64) AppleWebKit/537.36 (KHTML, like Gecko) Chrome/140.0.0.0 Safari/537.36" version="28.2.1">
  <diagram name="Page-1" id="45YhyuMBCsos2Zn7WF2i">
    <mxGraphModel dx="3169" dy="1744" grid="1" gridSize="15" guides="1" tooltips="1" connect="1" arrows="1" fold="1" page="1" pageScale="1" pageWidth="1169" pageHeight="827" math="0" shadow="0">
      <root>
        <mxCell id="0" />
        <mxCell id="1" parent="0" />
        <mxCell id="t37kugTZXSw8RHqsbUMQ-1" value="" style="rounded=0;whiteSpace=wrap;html=1;movable=0;resizable=0;rotatable=0;deletable=0;editable=0;locked=1;connectable=0;" vertex="1" parent="1">
          <mxGeometry x="45" y="30" width="375" height="750" as="geometry" />
        </mxCell>
        <mxCell id="t37kugTZXSw8RHqsbUMQ-2" value="" style="rounded=0;whiteSpace=wrap;html=1;movable=0;resizable=0;rotatable=0;deletable=0;editable=0;locked=1;connectable=0;" vertex="1" parent="1">
          <mxGeometry x="45" y="30" width="375" height="75" as="geometry" />
        </mxCell>
        <mxCell id="t37kugTZXSw8RHqsbUMQ-4" value="" style="shape=image;html=1;verticalAlign=top;verticalLabelPosition=bottom;labelBackgroundColor=#ffffff;imageAspect=0;aspect=fixed;image=https://icons.diagrams.net/icon-cache1/Evil_Icons_User_Interface-2617/menu-607.svg" vertex="1" parent="1">
          <mxGeometry x="345" y="50.5" width="34" height="34" as="geometry" />
        </mxCell>
        <mxCell id="t37kugTZXSw8RHqsbUMQ-5" value="" style="ellipse;whiteSpace=wrap;html=1;aspect=fixed;" vertex="1" parent="1">
          <mxGeometry x="75" y="50.5" width="30" height="30" as="geometry" />
        </mxCell>
        <mxCell id="t37kugTZXSw8RHqsbUMQ-8" value="" style="group" vertex="1" connectable="0" parent="1">
          <mxGeometry x="105" y="374" width="255" height="165" as="geometry" />
        </mxCell>
        <mxCell id="t37kugTZXSw8RHqsbUMQ-6" value="" style="rounded=0;whiteSpace=wrap;html=1;" vertex="1" parent="t37kugTZXSw8RHqsbUMQ-8">
          <mxGeometry width="255" height="165" as="geometry" />
        </mxCell>
        <mxCell id="t37kugTZXSw8RHqsbUMQ-7" value="" style="shape=collate;whiteSpace=wrap;html=1;" vertex="1" parent="t37kugTZXSw8RHqsbUMQ-8">
          <mxGeometry width="255" height="165" as="geometry" />
        </mxCell>
        <mxCell id="t37kugTZXSw8RHqsbUMQ-9" value="" style="rounded=0;whiteSpace=wrap;html=1;movable=0;resizable=0;rotatable=0;deletable=0;editable=0;locked=1;connectable=0;" vertex="1" parent="1">
          <mxGeometry x="45" y="705" width="375" height="75" as="geometry" />
        </mxCell>
        <mxCell id="t37kugTZXSw8RHqsbUMQ-12" value="" style="endArrow=none;html=1;rounded=0;" edge="1" parent="1">
          <mxGeometry width="50" height="50" relative="1" as="geometry">
            <mxPoint x="280" y="765.3" as="sourcePoint" />
            <mxPoint x="185" y="765.0021621621622" as="targetPoint" />
          </mxGeometry>
        </mxCell>
        <mxCell id="t37kugTZXSw8RHqsbUMQ-16" value="" style="rounded=1;whiteSpace=wrap;html=1;" vertex="1" parent="1">
          <mxGeometry x="180" y="720" width="15" height="15" as="geometry" />
        </mxCell>
        <mxCell id="t37kugTZXSw8RHqsbUMQ-21" value="" style="rounded=1;whiteSpace=wrap;html=1;" vertex="1" parent="1">
          <mxGeometry x="210" y="720" width="15" height="15" as="geometry" />
        </mxCell>
        <mxCell id="t37kugTZXSw8RHqsbUMQ-23" value="" style="rounded=1;whiteSpace=wrap;html=1;" vertex="1" parent="1">
          <mxGeometry x="240" y="720" width="15" height="15" as="geometry" />
        </mxCell>
        <mxCell id="t37kugTZXSw8RHqsbUMQ-25" value="" style="rounded=1;whiteSpace=wrap;html=1;" vertex="1" parent="1">
          <mxGeometry x="270" y="720" width="15" height="15" as="geometry" />
        </mxCell>
        <mxCell id="t37kugTZXSw8RHqsbUMQ-27" value="" style="endArrow=none;html=1;rounded=0;" edge="1" parent="1">
          <mxGeometry width="50" height="50" relative="1" as="geometry">
            <mxPoint x="210" y="67.45783783783773" as="sourcePoint" />
            <mxPoint x="115" y="67.16" as="targetPoint" />
          </mxGeometry>
        </mxCell>
        <mxCell id="t37kugTZXSw8RHqsbUMQ-28" value="" style="endArrow=none;html=1;rounded=0;" edge="1" parent="1">
          <mxGeometry width="50" height="50" relative="1" as="geometry">
            <mxPoint x="360" y="255" as="sourcePoint" />
            <mxPoint x="105" y="255" as="targetPoint" />
          </mxGeometry>
        </mxCell>
        <mxCell id="t37kugTZXSw8RHqsbUMQ-31" value="" style="endArrow=none;html=1;rounded=0;" edge="1" parent="1">
          <mxGeometry width="50" height="50" relative="1" as="geometry">
            <mxPoint x="360" y="285" as="sourcePoint" />
            <mxPoint x="105" y="285" as="targetPoint" />
          </mxGeometry>
        </mxCell>
        <mxCell id="t37kugTZXSw8RHqsbUMQ-34" value="" style="endArrow=none;html=1;rounded=0;" edge="1" parent="1">
          <mxGeometry width="50" height="50" relative="1" as="geometry">
            <mxPoint x="360" y="315" as="sourcePoint" />
            <mxPoint x="105" y="315" as="targetPoint" />
          </mxGeometry>
        </mxCell>
        <mxCell id="t37kugTZXSw8RHqsbUMQ-37" value="" style="endArrow=none;html=1;rounded=0;" edge="1" parent="1">
          <mxGeometry width="50" height="50" relative="1" as="geometry">
            <mxPoint x="360" y="345" as="sourcePoint" />
            <mxPoint x="105" y="345" as="targetPoint" />
          </mxGeometry>
        </mxCell>
        <mxCell id="t37kugTZXSw8RHqsbUMQ-41" value="Directory" style="text;strokeColor=none;align=center;fillColor=none;html=1;verticalAlign=middle;whiteSpace=wrap;rounded=0;strokeWidth=1;fontSize=24;" vertex="1" parent="1">
          <mxGeometry x="105" y="215" width="90" height="15" as="geometry" />
        </mxCell>
        <mxCell id="t37kugTZXSw8RHqsbUMQ-42" value="" style="rounded=0;whiteSpace=wrap;html=1;movable=0;resizable=0;rotatable=0;deletable=0;editable=0;locked=1;connectable=0;" vertex="1" parent="1">
          <mxGeometry x="570" y="30" width="1245" height="750" as="geometry" />
        </mxCell>
        <mxCell id="t37kugTZXSw8RHqsbUMQ-43" value="" style="rounded=0;whiteSpace=wrap;html=1;movable=0;resizable=0;rotatable=0;deletable=0;editable=0;locked=1;connectable=0;" vertex="1" parent="1">
          <mxGeometry x="570" y="30" width="1245" height="75" as="geometry" />
        </mxCell>
        <mxCell id="t37kugTZXSw8RHqsbUMQ-45" value="" style="ellipse;whiteSpace=wrap;html=1;aspect=fixed;movable=1;resizable=1;rotatable=1;deletable=1;editable=1;locked=0;connectable=1;" vertex="1" parent="1">
          <mxGeometry x="885" y="50.5" width="30" height="30" as="geometry" />
        </mxCell>
        <mxCell id="t37kugTZXSw8RHqsbUMQ-46" value="" style="group;movable=1;resizable=1;rotatable=1;deletable=1;editable=1;locked=0;connectable=1;" vertex="1" connectable="0" parent="1">
          <mxGeometry x="885" y="360" width="316" height="255" as="geometry" />
        </mxCell>
        <mxCell id="t37kugTZXSw8RHqsbUMQ-47" value="" style="rounded=0;whiteSpace=wrap;html=1;movable=1;resizable=1;rotatable=1;deletable=1;editable=1;locked=0;connectable=1;" vertex="1" parent="t37kugTZXSw8RHqsbUMQ-46">
          <mxGeometry width="316.00000000000006" height="255" as="geometry" />
        </mxCell>
        <mxCell id="t37kugTZXSw8RHqsbUMQ-48" value="" style="shape=collate;whiteSpace=wrap;html=1;movable=1;resizable=1;rotatable=1;deletable=1;editable=1;locked=0;connectable=1;" vertex="1" parent="t37kugTZXSw8RHqsbUMQ-46">
          <mxGeometry width="316.00000000000006" height="255" as="geometry" />
        </mxCell>
        <mxCell id="t37kugTZXSw8RHqsbUMQ-49" value="" style="rounded=0;whiteSpace=wrap;html=1;movable=0;resizable=0;rotatable=0;deletable=0;editable=0;locked=1;connectable=0;" vertex="1" parent="1">
          <mxGeometry x="570" y="705" width="1245" height="75" as="geometry" />
        </mxCell>
        <mxCell id="t37kugTZXSw8RHqsbUMQ-50" value="" style="endArrow=none;html=1;rounded=0;movable=1;resizable=1;rotatable=1;deletable=1;editable=1;locked=0;connectable=1;" edge="1" parent="1">
          <mxGeometry width="50" height="50" relative="1" as="geometry">
            <mxPoint x="1240" y="765.3" as="sourcePoint" />
            <mxPoint x="1145" y="765.0021621621622" as="targetPoint" />
          </mxGeometry>
        </mxCell>
        <mxCell id="t37kugTZXSw8RHqsbUMQ-51" value="" style="rounded=1;whiteSpace=wrap;html=1;movable=1;resizable=1;rotatable=1;deletable=1;editable=1;locked=0;connectable=1;" vertex="1" parent="1">
          <mxGeometry x="1140" y="720" width="15" height="15" as="geometry" />
        </mxCell>
        <mxCell id="t37kugTZXSw8RHqsbUMQ-52" value="" style="rounded=1;whiteSpace=wrap;html=1;movable=1;resizable=1;rotatable=1;deletable=1;editable=1;locked=0;connectable=1;" vertex="1" parent="1">
          <mxGeometry x="1170" y="720" width="15" height="15" as="geometry" />
        </mxCell>
        <mxCell id="t37kugTZXSw8RHqsbUMQ-53" value="" style="rounded=1;whiteSpace=wrap;html=1;movable=1;resizable=1;rotatable=1;deletable=1;editable=1;locked=0;connectable=1;" vertex="1" parent="1">
          <mxGeometry x="1200" y="720" width="15" height="15" as="geometry" />
        </mxCell>
        <mxCell id="t37kugTZXSw8RHqsbUMQ-54" value="" style="rounded=1;whiteSpace=wrap;html=1;movable=1;resizable=1;rotatable=1;deletable=1;editable=1;locked=0;connectable=1;" vertex="1" parent="1">
          <mxGeometry x="1230" y="720" width="15" height="15" as="geometry" />
        </mxCell>
        <mxCell id="t37kugTZXSw8RHqsbUMQ-55" value="" style="endArrow=none;html=1;rounded=0;movable=1;resizable=1;rotatable=1;deletable=1;editable=1;locked=0;connectable=1;" edge="1" parent="1">
          <mxGeometry width="50" height="50" relative="1" as="geometry">
            <mxPoint x="1020" y="68.4578378378377" as="sourcePoint" />
            <mxPoint x="925" y="68.15999999999997" as="targetPoint" />
          </mxGeometry>
        </mxCell>
        <mxCell id="t37kugTZXSw8RHqsbUMQ-56" value="" style="endArrow=none;html=1;rounded=0;movable=1;resizable=1;rotatable=1;deletable=1;editable=1;locked=0;connectable=1;" edge="1" parent="1">
          <mxGeometry width="50" height="50" relative="1" as="geometry">
            <mxPoint x="1200" y="225" as="sourcePoint" />
            <mxPoint x="885" y="225" as="targetPoint" />
          </mxGeometry>
        </mxCell>
        <mxCell id="t37kugTZXSw8RHqsbUMQ-60" value="Directory" style="text;strokeColor=none;align=center;fillColor=none;html=1;verticalAlign=middle;whiteSpace=wrap;rounded=0;strokeWidth=1;fontSize=24;movable=1;resizable=1;rotatable=1;deletable=1;editable=1;locked=0;connectable=1;" vertex="1" parent="1">
          <mxGeometry x="885" y="180" width="90" height="15" as="geometry" />
        </mxCell>
        <mxCell id="t37kugTZXSw8RHqsbUMQ-61" value="" style="endArrow=none;html=1;rounded=0;movable=1;resizable=1;rotatable=1;deletable=1;editable=1;locked=0;connectable=1;" edge="1" parent="1">
          <mxGeometry width="50" height="50" relative="1" as="geometry">
            <mxPoint x="1366" y="70.29" as="sourcePoint" />
            <mxPoint x="1311" y="70.08" as="targetPoint" />
          </mxGeometry>
        </mxCell>
        <mxCell id="t37kugTZXSw8RHqsbUMQ-63" value="" style="endArrow=none;html=1;rounded=0;movable=1;resizable=1;rotatable=1;deletable=1;editable=1;locked=0;connectable=1;" edge="1" parent="1">
          <mxGeometry width="50" height="50" relative="1" as="geometry">
            <mxPoint x="1435" y="70.29" as="sourcePoint" />
            <mxPoint x="1380" y="70.08" as="targetPoint" />
          </mxGeometry>
        </mxCell>
        <mxCell id="t37kugTZXSw8RHqsbUMQ-64" value="" style="endArrow=none;html=1;rounded=0;movable=1;resizable=1;rotatable=1;deletable=1;editable=1;locked=0;connectable=1;" edge="1" parent="1">
          <mxGeometry width="50" height="50" relative="1" as="geometry">
            <mxPoint x="1509" y="70.29" as="sourcePoint" />
            <mxPoint x="1454" y="70.08" as="targetPoint" />
          </mxGeometry>
        </mxCell>
        <mxCell id="t37kugTZXSw8RHqsbUMQ-70" value="" style="endArrow=none;html=1;rounded=0;movable=1;resizable=1;rotatable=1;deletable=1;editable=1;locked=0;connectable=1;" edge="1" parent="1">
          <mxGeometry width="50" height="50" relative="1" as="geometry">
            <mxPoint x="1200" y="255" as="sourcePoint" />
            <mxPoint x="885" y="255" as="targetPoint" />
          </mxGeometry>
        </mxCell>
        <mxCell id="t37kugTZXSw8RHqsbUMQ-71" value="" style="endArrow=none;html=1;rounded=0;movable=1;resizable=1;rotatable=1;deletable=1;editable=1;locked=0;connectable=1;" edge="1" parent="1">
          <mxGeometry width="50" height="50" relative="1" as="geometry">
            <mxPoint x="1200" y="285" as="sourcePoint" />
            <mxPoint x="885" y="285" as="targetPoint" />
          </mxGeometry>
        </mxCell>
        <mxCell id="t37kugTZXSw8RHqsbUMQ-72" value="" style="endArrow=none;html=1;rounded=0;movable=1;resizable=1;rotatable=1;deletable=1;editable=1;locked=0;connectable=1;" edge="1" parent="1">
          <mxGeometry width="50" height="50" relative="1" as="geometry">
            <mxPoint x="1200" y="315" as="sourcePoint" />
            <mxPoint x="885" y="315" as="targetPoint" />
          </mxGeometry>
        </mxCell>
        <mxCell id="t37kugTZXSw8RHqsbUMQ-73" value="&lt;font style=&quot;font-size: 24px;&quot;&gt;Home&lt;/font&gt;" style="rounded=0;whiteSpace=wrap;html=1;" vertex="1" parent="1">
          <mxGeometry x="1935" y="210" width="165" height="66" as="geometry" />
        </mxCell>
        <mxCell id="t37kugTZXSw8RHqsbUMQ-74" value="&lt;font style=&quot;font-size: 24px;&quot;&gt;Directory&lt;/font&gt;" style="rounded=0;whiteSpace=wrap;html=1;" vertex="1" parent="1">
          <mxGeometry x="2130" y="210" width="165" height="66" as="geometry" />
        </mxCell>
        <mxCell id="t37kugTZXSw8RHqsbUMQ-75" value="&lt;font style=&quot;font-size: 24px;&quot;&gt;Join&lt;/font&gt;" style="rounded=0;whiteSpace=wrap;html=1;" vertex="1" parent="1">
          <mxGeometry x="2325" y="210" width="165" height="66" as="geometry" />
        </mxCell>
        <mxCell id="t37kugTZXSw8RHqsbUMQ-76" value="&lt;span style=&quot;font-size: 24px;&quot;&gt;About&lt;/span&gt;" style="rounded=0;whiteSpace=wrap;html=1;" vertex="1" parent="1">
          <mxGeometry x="2520" y="210" width="165" height="66" as="geometry" />
        </mxCell>
        <mxCell id="t37kugTZXSw8RHqsbUMQ-83" value="" style="group" vertex="1" connectable="0" parent="1">
          <mxGeometry x="2025" y="195" width="195" height="15" as="geometry" />
        </mxCell>
        <mxCell id="t37kugTZXSw8RHqsbUMQ-78" value="" style="endArrow=none;html=1;rounded=0;" edge="1" parent="t37kugTZXSw8RHqsbUMQ-83">
          <mxGeometry width="50" height="50" relative="1" as="geometry">
            <mxPoint y="5" as="sourcePoint" />
            <mxPoint as="targetPoint" />
          </mxGeometry>
        </mxCell>
        <mxCell id="t37kugTZXSw8RHqsbUMQ-79" value="" style="endArrow=none;html=1;rounded=0;" edge="1" parent="t37kugTZXSw8RHqsbUMQ-83">
          <mxGeometry width="50" height="50" relative="1" as="geometry">
            <mxPoint x="195" y="15" as="sourcePoint" />
            <mxPoint x="195" as="targetPoint" />
            <Array as="points">
              <mxPoint x="195" y="15" />
            </Array>
          </mxGeometry>
        </mxCell>
        <mxCell id="t37kugTZXSw8RHqsbUMQ-80" value="" style="endArrow=none;html=1;rounded=0;" edge="1" parent="t37kugTZXSw8RHqsbUMQ-83">
          <mxGeometry width="50" height="50" relative="1" as="geometry">
            <mxPoint y="15" as="sourcePoint" />
            <mxPoint as="targetPoint" />
          </mxGeometry>
        </mxCell>
        <mxCell id="t37kugTZXSw8RHqsbUMQ-81" value="" style="endArrow=none;html=1;rounded=0;" edge="1" parent="t37kugTZXSw8RHqsbUMQ-83">
          <mxGeometry width="50" height="50" relative="1" as="geometry">
            <mxPoint y="15" as="sourcePoint" />
            <mxPoint as="targetPoint" />
          </mxGeometry>
        </mxCell>
        <mxCell id="t37kugTZXSw8RHqsbUMQ-82" value="" style="endArrow=none;html=1;rounded=0;" edge="1" parent="t37kugTZXSw8RHqsbUMQ-83">
          <mxGeometry width="50" height="50" relative="1" as="geometry">
            <mxPoint as="sourcePoint" />
            <mxPoint x="195" as="targetPoint" />
          </mxGeometry>
        </mxCell>
        <mxCell id="t37kugTZXSw8RHqsbUMQ-84" value="" style="group" vertex="1" connectable="0" parent="1">
          <mxGeometry x="2220" y="195" width="195" height="15" as="geometry" />
        </mxCell>
        <mxCell id="t37kugTZXSw8RHqsbUMQ-85" value="" style="endArrow=none;html=1;rounded=0;" edge="1" parent="t37kugTZXSw8RHqsbUMQ-84">
          <mxGeometry width="50" height="50" relative="1" as="geometry">
            <mxPoint y="5" as="sourcePoint" />
            <mxPoint as="targetPoint" />
          </mxGeometry>
        </mxCell>
        <mxCell id="t37kugTZXSw8RHqsbUMQ-86" value="" style="endArrow=none;html=1;rounded=0;" edge="1" parent="t37kugTZXSw8RHqsbUMQ-84">
          <mxGeometry width="50" height="50" relative="1" as="geometry">
            <mxPoint x="195" y="15" as="sourcePoint" />
            <mxPoint x="195" as="targetPoint" />
            <Array as="points">
              <mxPoint x="195" y="15" />
            </Array>
          </mxGeometry>
        </mxCell>
        <mxCell id="t37kugTZXSw8RHqsbUMQ-87" value="" style="endArrow=none;html=1;rounded=0;" edge="1" parent="t37kugTZXSw8RHqsbUMQ-84">
          <mxGeometry width="50" height="50" relative="1" as="geometry">
            <mxPoint y="15" as="sourcePoint" />
            <mxPoint as="targetPoint" />
          </mxGeometry>
        </mxCell>
        <mxCell id="t37kugTZXSw8RHqsbUMQ-88" value="" style="endArrow=none;html=1;rounded=0;" edge="1" parent="t37kugTZXSw8RHqsbUMQ-84">
          <mxGeometry width="50" height="50" relative="1" as="geometry">
            <mxPoint y="15" as="sourcePoint" />
            <mxPoint as="targetPoint" />
          </mxGeometry>
        </mxCell>
        <mxCell id="t37kugTZXSw8RHqsbUMQ-89" value="" style="endArrow=none;html=1;rounded=0;" edge="1" parent="t37kugTZXSw8RHqsbUMQ-84">
          <mxGeometry width="50" height="50" relative="1" as="geometry">
            <mxPoint as="sourcePoint" />
            <mxPoint x="195" as="targetPoint" />
          </mxGeometry>
        </mxCell>
        <mxCell id="t37kugTZXSw8RHqsbUMQ-90" value="" style="group" vertex="1" connectable="0" parent="1">
          <mxGeometry x="2415" y="195" width="195" height="15" as="geometry" />
        </mxCell>
        <mxCell id="t37kugTZXSw8RHqsbUMQ-91" value="" style="endArrow=none;html=1;rounded=0;" edge="1" parent="t37kugTZXSw8RHqsbUMQ-90">
          <mxGeometry width="50" height="50" relative="1" as="geometry">
            <mxPoint y="5" as="sourcePoint" />
            <mxPoint as="targetPoint" />
          </mxGeometry>
        </mxCell>
        <mxCell id="t37kugTZXSw8RHqsbUMQ-92" value="" style="endArrow=none;html=1;rounded=0;" edge="1" parent="t37kugTZXSw8RHqsbUMQ-90">
          <mxGeometry width="50" height="50" relative="1" as="geometry">
            <mxPoint x="195" y="15" as="sourcePoint" />
            <mxPoint x="195" as="targetPoint" />
            <Array as="points">
              <mxPoint x="195" y="15" />
            </Array>
          </mxGeometry>
        </mxCell>
        <mxCell id="t37kugTZXSw8RHqsbUMQ-93" value="" style="endArrow=none;html=1;rounded=0;" edge="1" parent="t37kugTZXSw8RHqsbUMQ-90">
          <mxGeometry width="50" height="50" relative="1" as="geometry">
            <mxPoint y="15" as="sourcePoint" />
            <mxPoint as="targetPoint" />
          </mxGeometry>
        </mxCell>
        <mxCell id="t37kugTZXSw8RHqsbUMQ-94" value="" style="endArrow=none;html=1;rounded=0;" edge="1" parent="t37kugTZXSw8RHqsbUMQ-90">
          <mxGeometry width="50" height="50" relative="1" as="geometry">
            <mxPoint y="15" as="sourcePoint" />
            <mxPoint as="targetPoint" />
          </mxGeometry>
        </mxCell>
        <mxCell id="t37kugTZXSw8RHqsbUMQ-95" value="" style="endArrow=none;html=1;rounded=0;" edge="1" parent="t37kugTZXSw8RHqsbUMQ-90">
          <mxGeometry width="50" height="50" relative="1" as="geometry">
            <mxPoint as="sourcePoint" />
            <mxPoint x="195" as="targetPoint" />
          </mxGeometry>
        </mxCell>
      </root>
    </mxGraphModel>
  </diagram>
</mxfile>
